# xmcd CD database file
#
# Track frame offsets:
#	150
#	17624
#	35425
#	57901
#	76050
#	99459
#	122767
#	140231
#	152962
#	170541
#	197917
#	218213
#	240235
#
# Disc length: 3372 seconds
#
# Revision: 0
# Processed by: cddbd v1.5.1PL0 Copyright (c) Steve Scherf et al.
# Submitted via: CDex 1.51
#
DISCID=ad0d2a0d
DTITLE=Todd Coyle Trio - I Told You This Would Happen
DYEAR=1900
DGENRE=Blues
TTITLE0=Looking For Paradise
TTITLE1=Time For Innocence
TTITLE2=La Busqueda D'un Amante (A Lover's Search)
TTITLE3=Candy
TTITLE4=Let Me Be Your Lover Tonight
TTITLE5=Phone's Ringin'
TTITLE6=Supine Sue
TTITLE7=The George Song
TTITLE8=Don't Run Away
TTITLE9=What Business (Is It Of Yours)
TTITLE10=Sometimes
TTITLE11=Watching You Watch
TTITLE12=Bring Me Some Candy
EXTD=
EXTT0=
EXTT1=
EXTT2=
EXTT3=
EXTT4=
EXTT5=
EXTT6=
EXTT7=
EXTT8=
EXTT9=
EXTT10=
EXTT11=
EXTT12=
PLAYORDER=
